<?xml version="1.0" encoding="UTF-8"?>
<svg version="1.1" viewBox="0 0 3200 2400" width="800" height="600" xmlns="http://www.w3.org/2000/svg">
<path transform="translate(788,781)" d="m0 0h57l35 5 27 5 24 6 36 12 30 13 25 13 23 14 14 10 18 13 4-2 11-8 14-10 16-10 17-10 21-11 28-12 33-11 28-7 32-6 29-4h57l30 4 32 6 31 8 29 10 26 11 22 11 22 13 18 12 18 13 3 3 4-1 19-14 18-12 17-10 16-9 26-12 26-10 22-7 34-8 43-7 9-1h57l30 4 32 6 24 6 36 12 24 10 16 8 22 12 19 12 17 12 12 9 5-2 17-13 15-10 20-12 18-10 24-11 24-9 25-8 24-6 32-6 29-4h57l30 4 32 6 24 6 36 12 26 11 24 12 22 13 19 13 12 9 14 11 20 18 24 24 9 11 10 12 11 15 12 18 10 17 6 10 11 23 9 21 9 25 7 25 7 34 4 32 1 17v37l-2 29-4 27-5 24-8 29-7 20-10 24-13 27-16 27-13 19-10 13-7 9-13 15-7 8-12 12-8 7-11 10-10 8-18 14-20 13-20 12-23 12-23 10-27 10-37 10-26 5-22 3-29 2h-33l-31-2-31-5-22-5-19-5-27-9-26-11-19-9-18-10-16-10-16-11-18-13-5 2-13 10-15 10-16 10-21 12-23 11-28 11-28 9-30 7-30 5-19 2-18 1h-33l-31-2-31-5-27-6-24-7-27-10-18-8-19-9-23-13-15-10-17-12-10-8-4-1v2l-11 8-16 11-19 12-18 10-16 8-22 10-28 10-28 8-28 6-29 4-28 2h-33l-31-2-32-5-34-8-36-12-30-13-25-13-23-14-20-14-12-9-4 1-13 10-13 9-19 12-18 10-15 8-31 13-33 11-28 7-28 5-26 3-18 1h-34l-30-2-32-5-26-6-27-8-29-11-24-11-21-11-24-15-17-12-14-11-14-12-10-9-24-24-7-8-14-17-13-18-11-17-11-19-12-23-11-25-12-36-6-22-5-26-4-30-1-14v-52l3-29 5-30 7-28 12-36 11-26 12-24 12-20 11-17 14-19 9-11 18-21h2l2-4h2l2-4h2l2-4h2v-2l8-7 12-11 14-11 19-14 17-11 21-12 19-10 28-12 36-12 34-8 43-7zm8 89-21 2-25 4-24 6-30 10-20 9-25 13-19 12-21 16-14 12-16 15-1 3h-2l-7 8-12 14-14 19-12 19-12 22-9 20-9 25-7 25-5 26-3 27v43l4 34 5 24 7 25 8 21 8 18 12 23 12 19 14 19 12 14 12 13 12 12 11 9 13 11 16 11 16 10 18 10 17 8 23 9 15 5 24 6 23 4 29 3h35l36-4 20-4 23-6 28-10 24-11 22-12 18-12 10-7-4-6-10-13-14-21-12-20-14-27-12-29-11-33-7-29-5-29-3-29v-54l4-36 6-31 8-30 11-31 12-27 11-21 12-20 8-12 12-17 8-10-5-5-15-10-20-12-15-8-26-11-27-9-25-6-24-4-22-2zm522 0-22 2-24 4-24 6-27 9-23 10-23 12-16 10-13 9-5 3 1 4 9 11 10 14 14 22 13 24 11 23 10 25 10 32 7 31 4 25 3 37v34l-3 35-5 30-6 26-9 29-8 21-11 24-10 20-14 23-13 19-9 12-4 4 2 4 24 16 16 9 15 8 24 10 30 10 27 6 29 4 13 1h35l36-4 29-6 20-6 22-8 20-9 21-11 19-12 10-7 3-2-1-5-9-11-14-20-9-15-9-16-10-19-11-26-9-25-7-25-6-28-4-27-2-24v-48l3-30 5-30 8-32 10-30 11-26 9-19 13-23 11-17 13-19 6-7v-2h2l1-3-11-8-15-10-25-14-29-13-31-10-26-6-28-4-14-1zm523 0-22 2-25 4-24 6-30 10-26 12-17 9-19 12-14 10 1 5 9 11 11 16 12 19 10 18 12 24 10 25 10 30 7 28 5 28 3 26 1 18v30l-2 31-4 28-5 24-8 29-9 26-11 25-8 16-9 17-8 13-10 15-10 14-8 10 5 5 21 14 16 9 15 8 24 10 30 10 27 6 29 4 13 1h35l37-4 24-5 24-7 20-7 24-11 21-11 17-11 14-10-4-6-14-19-13-20-12-21-8-15-11-25-9-24-9-31-7-34-4-32-1-12v-48l3-31 5-29 7-29 12-36 11-26 8-17 14-24 10-16 10-14 8-11 4-5-5-5-18-12-15-9-17-9-23-10-33-11-26-6-28-4-14-1zm521 0-21 2-29 5-23 6-21 7-26 11-23 12-20 13-14 9 1 4 7 8 12 17 13 20 13 23 13 28 10 26 9 29 7 30 4 25 3 33v43l-3 33-5 29-6 26-9 28-9 24-14 30-10 18-13 21-12 17-8 10-3 3 1 3 20 14 21 12 16 8 18 8 25 9 23 6 27 5 29 3h35l31-3 26-5 29-8 26-10 25-12 16-9 17-11 16-12 10-8 12-11 6-5v-2l4-2 7-8 7-7 11-14 10-13 9-14 10-17 8-15 11-26 8-24 7-28 4-26 2-22v-33l-3-31-5-27-7-25-7-21-13-29-14-25-8-12-10-14-14-17-5-6h-2l-2-4-16-16-8-7-15-12-17-12-21-13-25-13-25-10-25-8-26-6-27-4-15-1zm-1286 130-10 15-11 17-11 20-9 20-7 18-7 23-6 26-3 18-2 25v34l2 24 5 29 5 20 10 30 11 25 10 19 12 19 11 15h4l10-14 12-19 14-27 8-19 10-30 6-26 4-26 2-31-1-34-4-30-6-27-6-19-7-20-12-26-11-20-11-17-9-12zm522 0-8 12-11 17-10 18-12 25-9 25-6 20-6 27-4 37v36l4 36 6 28 8 27 8 20 8 18 13 23 10 16 8 11 3 3 6-7 10-15 9-15 12-23 10-23 9-28 6-25 4-27 2-25v-24l-3-34-5-27-7-26-7-20-10-23-13-25-14-22-7-10zm523 0-9 12-12 19-10 18-10 21-9 24-7 23-5 23-3 19-2 26v28l2 25 5 30 6 24 7 21 10 24 8 16 10 18 8 12 8 11 3 4h3l18-27 10-17 11-23 10-26 8-28 5-25 3-24 1-16v-24l-1-19-4-29-6-26-8-26-10-25-8-16-9-17-20-30z"/>
</svg>
